<svg xmlns="http://www.w3.org/2000/svg" width="64" height="64" viewBox="0 0 32 48" shape-rendering="crispEdges">
  <rect width="32" height="48" fill="none"/>
  <!-- Nose -->
  <rect x="13" y="4" width="6" height="2" fill="#ef4444"/>
  <rect x="14" y="3" width="4" height="1" fill="#dc2626"/>

  <!-- Body -->
  <rect x="13" y="6" width="6" height="22" fill="#e5e7eb"/>
  <rect x="12" y="7" width="1" height="20" fill="#9ca3af"/>
  <rect x="19" y="7" width="1" height="20" fill="#9ca3af"/>

  <!-- Window -->
  <rect x="14" y="12" width="4" height="4" fill="#60a5fa"/>
  <rect x="14" y="12" width="1" height="1" fill="#93c5fd"/>

  <!-- Fins -->
  <rect x="10" y="20" width="4" height="6" fill="#ef4444"/>
  <rect x="18" y="20" width="4" height="6" fill="#ef4444"/>
  <rect x="10" y="26" width="4" height="1" fill="#b91c1c"/>
  <rect x="18" y="26" width="4" height="1" fill="#b91c1c"/>

  <!-- Engine -->
  <rect x="14" y="28" width="4" height="2" fill="#9ca3af"/>

  <!-- Flame -->
  <rect x="15" y="30" width="2" height="3" fill="#f59e0b"/>
  <rect x="15" y="33" width="2" height="2" fill="#fde047"/>

  <!-- Exhaust pixels -->
  <rect x="15" y="36" width="2" height="2" fill="#fca5a5" opacity="0.75"/>
  <rect x="14" y="39" width="4" height="2" fill="#fecaca" opacity="0.55"/>
</svg>


