<svg width="120" height="120" viewBox="0 0 120 120" xmlns="http://www.w3.org/2000/svg">
  <defs>
    <!-- Gradients -->
    <linearGradient id="cardGradient" x1="0%" y1="0%" x2="100%" y2="100%">
      <stop offset="0%" style="stop-color:#667eea;stop-opacity:1" />
      <stop offset="100%" style="stop-color:#764ba2;stop-opacity:1" />
    </linearGradient>
    
    <linearGradient id="glowGradient" x1="0%" y1="0%" x2="100%" y2="100%">
      <stop offset="0%" style="stop-color:#ff6b6b;stop-opacity:0.8" />
      <stop offset="25%" style="stop-color:#4ecdc4;stop-opacity:0.8" />
      <stop offset="50%" style="stop-color:#45b7d1;stop-opacity:0.8" />
      <stop offset="75%" style="stop-color:#96ceb4;stop-opacity:0.8" />
      <stop offset="100%" style="stop-color:#feca57;stop-opacity:0.8" />
    </linearGradient>
    
    <!-- Filters -->
    <filter id="glow" x="-50%" y="-50%" width="200%" height="200%">
      <feGaussianBlur stdDeviation="3" result="coloredBlur"/>
      <feMerge> 
        <feMergeNode in="coloredBlur"/>
        <feMergeNode in="SourceGraphic"/>
      </feMerge>
    </filter>
    
    <filter id="shadow" x="-20%" y="-20%" width="140%" height="140%">
      <feDropShadow dx="2" dy="4" stdDeviation="3" flood-color="#000000" flood-opacity="0.3"/>
    </filter>
  </defs>
  
  <!-- Animated background glow -->
  <circle cx="60" cy="60" r="58" fill="url(#glowGradient)" opacity="0.3">
    <animate attributeName="opacity" values="0.3;0.6;0.3" dur="3s" repeatCount="indefinite"/>
    <animateTransform attributeName="transform" type="rotate" values="0 60 60;360 60 60" dur="20s" repeatCount="indefinite"/>
  </circle>
  
  <!-- Main card stack -->
  <g filter="url(#shadow)">
    <!-- Back card -->
    <rect x="25" y="35" width="70" height="50" rx="4" fill="#e0e0e0" opacity="0.8">
      <animate attributeName="y" values="35;33;35" dur="2s" repeatCount="indefinite"/>
    </rect>
    
    <!-- Middle card -->
    <rect x="30" y="30" width="70" height="50" rx="4" fill="#f0f0f0" opacity="0.9">
      <animate attributeName="y" values="30;28;30" dur="2s" repeatCount="indefinite" begin="0.5s"/>
    </rect>
    
    <!-- Front card -->
    <rect x="35" y="25" width="70" height="50" rx="4" fill="url(#cardGradient)">
      <animate attributeName="y" values="25;23;25" dur="2s" repeatCount="indefinite" begin="1s"/>
    </rect>
  </g>
  
  <!-- Card content - pixel art style -->
  <g>
    <!-- Question mark -->
    <rect x="55" y="35" width="2" height="2" fill="white"/>
    <rect x="57" y="35" width="2" height="2" fill="white"/>
    <rect x="59" y="35" width="2" height="2" fill="white"/>
    <rect x="61" y="35" width="2" height="2" fill="white"/>
    
    <rect x="55" y="37" width="2" height="2" fill="white"/>
    <rect x="61" y="37" width="2" height="2" fill="white"/>
    
    <rect x="55" y="39" width="2" height="2" fill="white"/>
    <rect x="61" y="39" width="2" height="2" fill="white"/>
    
    <rect x="55" y="41" width="2" height="2" fill="white"/>
    <rect x="57" y="41" width="2" height="2" fill="white"/>
    <rect x="59" y="41" width="2" height="2" fill="white"/>
    <rect x="61" y="41" width="2" height="2" fill="white"/>
    
    <rect x="59" y="43" width="2" height="2" fill="white"/>
    <rect x="61" y="43" width="2" height="2" fill="white"/>
    
    <rect x="59" y="45" width="2" height="2" fill="white"/>
    <rect x="61" y="45" width="2" height="2" fill="white"/>
    
    <!-- Answer dots -->
    <rect x="55" y="50" width="2" height="2" fill="white"/>
    <rect x="57" y="50" width="2" height="2" fill="white"/>
    <rect x="59" y="50" width="2" height="2" fill="white"/>
    <rect x="61" y="50" width="2" height="2" fill="white"/>
  </g>
  
  <!-- Floating particles -->
  <g opacity="0.6">
    <circle cx="20" cy="20" r="1" fill="white">
      <animate attributeName="cy" values="20;-10" dur="4s" repeatCount="indefinite"/>
      <animate attributeName="opacity" values="0.6;0;0.6" dur="4s" repeatCount="indefinite"/>
    </circle>
    
    <circle cx="100" cy="25" r="1" fill="white">
      <animate attributeName="cy" values="25;-5" dur="3.5s" repeatCount="indefinite"/>
      <animate attributeName="opacity" values="0.6;0;0.6" dur="3.5s" repeatCount="indefinite"/>
    </circle>
    
    <circle cx="15" cy="100" r="1" fill="white">
      <animate attributeName="cy" values="100;130" dur="5s" repeatCount="indefinite"/>
      <animate attributeName="opacity" values="0.6;0;0.6" dur="5s" repeatCount="indefinite"/>
    </circle>
    
    <circle cx="105" cy="95" r="1" fill="white">
      <animate attributeName="cy" values="95;125" dur="4.5s" repeatCount="indefinite"/>
      <animate attributeName="opacity" values="0.6;0;0.6" dur="4.5s" repeatCount="indefinite"/>
    </circle>
  </g>
  
  <!-- Hover effect glow -->
  <circle cx="60" cy="60" r="62" fill="url(#glowGradient)" opacity="0" filter="url(#glow)">
    <animate attributeName="opacity" values="0;0.8;0" dur="0.6s" begin="mouseover" fill="freeze"/>
  </circle>
</svg>

